<?xml version="1.0" standalone="no"?>
<!DOCTYPE svg PUBLIC "-//W3C//DTD SVG 20010904//EN"
 "http://www.w3.org/TR/2001/REC-SVG-20010904/DTD/svg10.dtd">
<svg version="1.0" xmlns="http://www.w3.org/2000/svg"
 width="1000.000000pt" height="1000.000000pt" viewBox="0 0 1000.000000 1000.000000"
 preserveAspectRatio="xMidYMid meet">
<metadata>
Created by potrace 1.11, written by Peter Selinger 2001-2013
</metadata>
<g transform="translate(0.000000,1000.000000) scale(0.100000,-0.100000)"
fill="#000000" stroke="none">
<path d="M0 5000 l0 -5000 5000 0 5000 0 0 5000 0 5000 -5000 0 -5000 0 0
-5000z m7115 4675 c116 -31 227 -106 331 -227 49 -56 111 -141 287 -393 42
-60 117 -157 166 -214 62 -71 103 -131 131 -188 144 -294 141 -763 -7 -1138
-107 -272 -278 -445 -518 -524 -201 -66 -414 -81 -897 -62 -479 18 -566 31
-727 108 -162 77 -270 211 -370 459 -61 152 -78 215 -91 339 -29 274 61 689
212 975 117 223 303 466 385 505 20 10 60 32 88 50 366 234 795 366 1010 310z
m-2669 -750 c173 -30 236 -58 308 -135 87 -93 129 -221 148 -460 9 -109 8
-198 -5 -455 -9 -176 -14 -365 -10 -420 4 -79 2 -114 -11 -160 -52 -182 -216
-368 -614 -700 -222 -185 -310 -241 -442 -286 -82 -28 -112 -33 -223 -37 -152
-5 -243 7 -383 53 -194 64 -333 155 -501 329 -151 156 -252 308 -283 426 -6
25 -45 115 -85 200 -100 212 -119 276 -113 393 5 111 28 163 138 307 151 198
456 516 561 585 267 176 643 310 1004 359 141 20 401 20 511 1z m-2741 -2275
c330 -47 698 -319 966 -717 72 -106 152 -264 190 -373 32 -93 33 -98 31 -255
-2 -108 5 -227 20 -370 31 -297 31 -618 0 -763 -59 -271 -167 -451 -372 -614
-100 -80 -211 -139 -325 -174 -77 -23 -108 -26 -220 -27 -143 0 -221 14 -370
64 -141 49 -536 248 -740 374 -340 211 -469 535 -469 1185 0 301 28 490 109
736 207 630 679 1004 1180 934z m5775 -195 c582 -107 1046 -417 1372 -915 214
-326 462 -1004 542 -1480 98 -580 18 -1069 -241 -1482 -218 -347 -519 -635
-1078 -1034 -280 -199 -940 -639 -1140 -758 -357 -214 -648 -339 -866 -372
-186 -28 -340 -10 -679 81 -267 71 -399 103 -582 141 -199 41 -285 68 -416
129 -198 94 -349 203 -507 367 -134 139 -224 263 -309 428 -119 231 -169 415
-169 625 -1 220 37 320 175 455 148 145 199 257 200 440 1 208 -59 419 -277
975 -105 270 -194 512 -211 573 -43 164 -39 344 11 517 100 342 386 657 786
863 414 212 896 281 1379 197 133 -23 173 -26 280 -22 155 7 232 26 472 116
275 102 443 146 678 175 91 11 488 -2 580 -19z m-4868 -3448 c131 -64 238
-237 302 -489 45 -172 113 -559 125 -703 22 -264 -31 -453 -184 -660 -119
-161 -211 -225 -323 -225 -87 0 -127 12 -357 103 -110 43 -238 93 -285 109
-447 158 -733 373 -856 642 -27 60 -54 171 -54 227 -1 187 214 534 419 677
318 222 707 354 1026 349 120 -2 135 -4 187 -30z"/>
</g>
</svg>
